<?xml version="1.0" ?><svg data-name="Layer 1" id="Layer_1" viewBox="0 0 512 512" xmlns="http://www.w3.org/2000/svg"><path d="M429.73,227.65c-.06-.1-.18-.13-.24-.22a5.16,5.16,0,0,0-2.07-2l-.09,0c-.06,0-.13,0-.19,0a5.18,5.18,0,0,0-2.87-.33c-.11,0-.21-.06-.33,0l-67.56,14.39a107.13,107.13,0,0,0,8.17-40.57,108.55,108.55,0,1,0-217.09,0,107.12,107.12,0,0,0,8.16,40.57L88.06,225c-.11,0-.21.06-.32,0a5.28,5.28,0,0,0-2.82.31c-.08,0-.17,0-.25.07a.32.32,0,0,0-.09,0,5.16,5.16,0,0,0-2.07,2c-.06.09-.18.12-.23.22-1.87,3.41-45.1,84.86,14,191.35a5.34,5.34,0,0,0,4.66,2.74,5.52,5.52,0,0,0,.81-.06,5.33,5.33,0,0,0,4.42-4.19l22.43-108.56,65.79-21.18A108.23,108.23,0,0,0,204.63,294c0,2.72.06,5.47.23,8.35,4.18,71.17,45.5,115.87,47.25,117.74a5.35,5.35,0,0,0,7.77,0c1.76-1.87,43.09-46.57,47.26-117.74.17-2.88.21-5.63.23-8.35a108.23,108.23,0,0,0,10.29-6.23l65.79,21.18,22.44,108.56a5.33,5.33,0,0,0,9.88,1.51C474.82,312.51,431.59,231.06,429.73,227.65Zm-14.36,10.07-30.06,60.6L327.9,279.84a109,109,0,0,0,22.6-28.3ZM256,100.92A98,98,0,0,1,349.8,171H295.65a40,40,0,0,0-79.3,0H162.2A98,98,0,0,1,256,100.92Zm29.53,75.39A29.53,29.53,0,1,1,256,146.78,29.57,29.57,0,0,1,285.53,176.31Zm-125.81,5.33h56.63a40,40,0,0,0,79.3,0h56.63A96.68,96.68,0,0,1,307,282.05c-1.51-17.89-6.92-31.52-16.2-40.58a38.92,38.92,0,0,0-28-11.31l-13,0a39.28,39.28,0,0,0-28.46,11.29C212,250.53,206.56,264.15,205,282c-28-17.23-46.92-48-46.92-83.23A98.07,98.07,0,0,1,159.72,181.64ZM296,280.42l-20.24-14.05a34.83,34.83,0,0,0-39.54,0L216,280.42c1.57-13.79,5.76-24.44,12.55-31.18a28.64,28.64,0,0,1,19.81-8.44c.48,0,.8,0,.92,0l13.89,0a28.34,28.34,0,0,1,20.15,8.28C290.19,255.82,294.43,266.53,296,280.42Zm-111.91-.58-57.41,18.48-30.06-60.6,64.87,13.82A109,109,0,0,0,184.1,279.84ZM98.71,400.62c-35.8-74.29-20.08-134.7-11.42-157.73l31.08,62.64ZM256,408.14c-10.22-12.85-37.27-51.69-40.49-106.43-.15-2.69-.21-5.27-.23-7.81l27-18.77a24.11,24.11,0,0,1,27.37,0l27,18.77c0,2.54-.07,5.12-.23,7.81C293.29,356.32,266.21,395.27,256,408.14Zm157.3-7.52-19.65-95.09,31.09-62.68C433.42,265.83,449.21,326.14,413.29,400.62Z"/></svg>